<svg id="Layer_1" data-name="Layer 1" xmlns="http://www.w3.org/2000/svg" viewBox="0 0 11.571 18.411">
  <defs>
    <style>
      .cls-1 {
        fill: #333;
      }
    </style>
  </defs>
  <title>ecb31a9c-99f3-4ca8-867c-b9395c0efebe</title>
  <path class="cls-1" d="M10.8,7.8a0.314,0.314,0,0,1-.1.23L6.017,12.716a0.315,0.315,0,0,1-.462,0L0.874,8.035a0.314,0.314,0,0,1-.1-0.23,0.318,0.318,0,0,1,.1-0.231l0.5-.5a0.318,0.318,0,0,1,.231-0.1,0.314,0.314,0,0,1,.23.1l3.948,3.947L9.733,7.071a0.314,0.314,0,0,1,.23-0.1,0.318,0.318,0,0,1,.231.1l0.5,0.5A0.318,0.318,0,0,1,10.8,7.8Z"/>
</svg>
