<svg id="Layer_1" data-name="Layer 1" xmlns="http://www.w3.org/2000/svg" viewBox="0 0 11.5 14.328">
  <defs>
    <style>
      .cls-1 {
        fill: #fff;
      }
    </style>
  </defs>
  <title>16dacb82-92ff-4879-b21e-d0e86b8268bb</title>
  <path class="cls-1" d="M4.82,11.25l-0.391.391a0.246,0.246,0,0,1-.359,0L0.43,8a0.246,0.246,0,0,1,0-.359L4.07,4A0.246,0.246,0,0,1,4.43,4L4.82,4.391a0.246,0.246,0,0,1,0,.359L1.75,7.82l3.07,3.07A0.246,0.246,0,0,1,4.82,11.25Zm3,0-0.391.391a0.246,0.246,0,0,1-.359,0L3.43,8a0.246,0.246,0,0,1,0-.359L7.07,4A0.246,0.246,0,0,1,7.43,4L7.82,4.391a0.246,0.246,0,0,1,0,.359L4.75,7.82l3.07,3.07A0.246,0.246,0,0,1,7.82,11.25Z"/>
</svg>
