<svg xmlns="http://www.w3.org/2000/svg" xmlns:xlink="http://www.w3.org/1999/xlink" viewBox="0 0 40.97123 40.72638"><defs><radialGradient id="radial-gradient" cx="-3820.92012" cy="-574.06169" r="1.00001" gradientTransform="matrix(16.60527, 0, 0, -16.60527, 63468.19134, -9511.37403)" gradientUnits="userSpaceOnUse"><stop offset="0" stop-color="#fff"/><stop offset="1"/></radialGradient><clipPath id="clip-path"><rect x="3.61742" y="4.13661" width="34.25529" height="34.25529" style="fill:none"/></clipPath><clipPath id="clip-path-3"><path d="M4.18142,21.07491a16.6055,16.6055,0,1,0,16.605-16.606,16.60588,16.60588,0,0,0-16.605,16.606" style="fill:none"/></clipPath><mask id="mask" x="4.18142" y="4.4689" width="33.21101" height="33.21101" maskUnits="userSpaceOnUse"><rect x="4.18142" y="4.4689" width="33.21101" height="33.21101" style="fill:url(#radial-gradient)"/></mask><radialGradient id="radial-gradient-2" cx="-3820.92009" cy="-574.06169" r="1.00001" gradientTransform="matrix(16.60527, 0, 0, -16.60527, 63468.18358, -9511.37299)" gradientUnits="userSpaceOnUse"><stop offset="0"/><stop offset="1"/></radialGradient><clipPath id="clip-path-4"><rect x="9.53642" y="12.10091" width="22.416" height="18.327" style="fill:none"/></clipPath></defs><title>Container Node Active</title><g id="Layer_11" data-name="Layer 11"><circle cx="20.5958" cy="21.10865" r="18.68333" style="fill:#f6f"/><g id="model_node_icon" data-name="model node icon"><g style="clip-path:url(#clip-path)"><g style="clip-path:url(#clip-path)"><g style="clip-path:url(#clip-path-3)"><g style="mask:url(#mask)"><rect x="4.18142" y="4.46891" width="33.211" height="33.211" style="fill:url(#radial-gradient-2)"/></g></g><g style="clip-path:url(#clip-path-4)"><rect x="10.25742" y="14.09691" width="20.712" height="14.332" style="fill:#909"/></g><g style="clip-path:url(#clip-path-4)"><path d="M31.9591,28.03785a2.00784,2.00784,0,0,1-2.002,2.002h-18.418a2.00784,2.00784,0,0,1-2.002-2.002V14.42457a2.00784,2.00784,0,0,1,2.002-2.002h18.418a2.00784,2.00784,0,0,1,2.002,2.002ZM30.35754,17.6277a.41169.41169,0,0,0-.40039-.40039h-18.418a.41169.41169,0,0,0-.40039.40039V28.03785a.41169.41169,0,0,0,.40039.40039h18.418a.41169.41169,0,0,0,.40039-.40039ZM14.34191,20.03a.41169.41169,0,0,1-.40039.40039h-.80078a.41169.41169,0,0,1-.40039-.40039v-.80078a.41169.41169,0,0,1,.40039-.40039h.80078a.41169.41169,0,0,1,.40039.40039Zm0,3.20313a.41169.41169,0,0,1-.40039.40039h-.80078a.41169.41169,0,0,1-.40039-.40039v-.80078a.41169.41169,0,0,1,.40039-.40039h.80078a.41169.41169,0,0,1,.40039.40039Zm0,3.20313a.41169.41169,0,0,1-.40039.40039h-.80078a.41169.41169,0,0,1-.40039-.40039v-.80078a.41169.41169,0,0,1,.40039-.40039h.80078a.41169.41169,0,0,1,.40039.40039ZM28.756,20.03a.41169.41169,0,0,1-.40039.40039H16.34387a.41169.41169,0,0,1-.40039-.40039v-.80078a.41169.41169,0,0,1,.40039-.40039H28.35558a.41169.41169,0,0,1,.40039.40039Zm0,3.20313a.41169.41169,0,0,1-.40039.40039H16.34387a.41169.41169,0,0,1-.40039-.40039v-.80078a.41169.41169,0,0,1,.40039-.40039H28.35558a.41169.41169,0,0,1,.40039.40039Zm0,3.20313a.41169.41169,0,0,1-.40039.40039H16.34387a.41169.41169,0,0,1-.40039-.40039v-.80078a.41169.41169,0,0,1,.40039-.40039H28.35558a.41169.41169,0,0,1,.40039.40039Z" style="fill:#f6f"/></g></g></g></g></g></svg>