<svg xmlns="http://www.w3.org/2000/svg" xmlns:xlink="http://www.w3.org/1999/xlink" viewBox="0 0 32.31993 34.25529"><defs><clipPath id="clip-path"><rect x="1.93848" y="4.88921" width="30" height="24.06838" style="fill:none"/></clipPath><clipPath id="clip-path-2"><rect x="1.93848" y="4.88904" width="29.99984" height="24.06856" style="fill:none"/></clipPath></defs><title>Container node detail icon</title><g id="Layer_10" data-name="Layer 10"><g id="model_icon" data-name="model icon"><g style="clip-path:url(#clip-path)"><rect x="3.33676" y="7.51037" width="27.20153" height="18.8224" style="fill:#909"/><g style="clip-path:url(#clip-path-2)"><path d="M31.80929,25.82107a2.63435,2.63435,0,0,1-2.62663,2.62663H5.01771a2.63435,2.63435,0,0,1-2.62663-2.62663V7.96A2.63435,2.63435,0,0,1,5.01771,5.33339h24.165A2.63435,2.63435,0,0,1,31.80929,7.96ZM29.708,12.16262a.54015.54015,0,0,0-.52533-.52533H5.01771a.54015.54015,0,0,0-.52533.52533V25.82107a.54015.54015,0,0,0,.52533.52533h24.165a.54015.54015,0,0,0,.52533-.52533Zm-21.013,3.152a.54015.54015,0,0,1-.52533.52533H7.119a.54015.54015,0,0,1-.52533-.52533V14.26392a.54015.54015,0,0,1,.52533-.52533H8.16966a.54015.54015,0,0,1,.52533.52533Zm0,4.2026a.54015.54015,0,0,1-.52533.52533H7.119a.54015.54015,0,0,1-.52533-.52533V18.46652a.54015.54015,0,0,1,.52533-.52533H8.16966a.54015.54015,0,0,1,.52533.52533Zm0,4.2026a.54015.54015,0,0,1-.52533.52533H7.119a.54015.54015,0,0,1-.52533-.52533V22.66912a.54015.54015,0,0,1,.52533-.52533H8.16966a.54015.54015,0,0,1,.52533.52533Zm18.9117-8.4052a.54015.54015,0,0,1-.52533.52533H11.32161a.54015.54015,0,0,1-.52533-.52533V14.26392a.54015.54015,0,0,1,.52533-.52533H27.08136a.54015.54015,0,0,1,.52533.52533Zm0,4.2026a.54015.54015,0,0,1-.52533.52533H11.32161a.54015.54015,0,0,1-.52533-.52533V18.46652a.54015.54015,0,0,1,.52533-.52533H27.08136a.54015.54015,0,0,1,.52533.52533Zm0,4.2026a.54015.54015,0,0,1-.52533.52533H11.32161a.54015.54015,0,0,1-.52533-.52533V22.66912a.54015.54015,0,0,1,.52533-.52533H27.08136a.54015.54015,0,0,1,.52533.52533Z" style="fill:#f6f"/></g></g></g></g></svg>