<svg xmlns="http://www.w3.org/2000/svg" xmlns:xlink="http://www.w3.org/1999/xlink" viewBox="0 0 32.31993 34.25529"><defs><clipPath id="clip-path"><rect x="1.25842" y="4.87719" width="30" height="25.11361" style="fill:none"/></clipPath><clipPath id="clip-path-2"><rect x="1.25842" y="4.87683" width="30.00072" height="25.11397" style="fill:none"/></clipPath></defs><title>Input Adaptor node detail icon_1</title><g id="Layer_10" data-name="Layer 10"><g id="model_icon" data-name="model icon"><g style="clip-path:url(#clip-path)"><polygon points="29.852 27.707 16.866 27.707 16.866 21.48 21.31 17.234 16.866 13.027 16.866 7.38 29.852 7.38 29.852 27.707" style="fill:#c93;fill-rule:evenodd"/><g style="clip-path:url(#clip-path-2)"><path d="M29.07261,27.43133V7.43629h-11.406v3.29048a.79393.79393,0,0,1-1.5872,0V6.66537a.78211.78211,0,0,1,.79269-.77092H29.86712a.78254.78254,0,0,1,.7945.77092V28.20225a.78254.78254,0,0,1-.7945.77092m0-23.07873a.78254.78254,0,0,1,.7945.77092V28.20225a.78254.78254,0,0,1-.7945.77092H16.87207a.78211.78211,0,0,1-.79269-.77092V23.48057a.79393.79393,0,0,1,1.5872,0v3.95076h11.406V7.43629" style="fill:#cc6"/><path d="M10.87827,26.68653a.6892.6892,0,0,0,.68385-.10339l9.80433-8.87741c.11791-.10884.35735-.26121.35735-.42083v-.00363c0-.16325-.21042-.31744-.332-.42446L11.6891,8.27869a.884.884,0,0,0-.78-.09614c-.20679.09251-.50246.29749-.50246.52423V13.5772H3.05476c-.31744,0-.575.43716-.575.7546s.25758.7546.575.7546h8.18267c.31744,0,.67841-.49339.67841-.809V10.537l7.49156,6.77687-7.49156,6.60636V20.06384a.66529.66529,0,0,0-.67841-.56413H3.05476c-.31744,0-.575.51334-.575.83078s.25758.79269.575.79269h7.35189v5.03731c0,.22856.263.43535.47162.526" style="fill:#cc6"/></g></g></g></g></svg>