<svg xmlns="http://www.w3.org/2000/svg" xmlns:xlink="http://www.w3.org/1999/xlink" viewBox="0 0 40.97123 40.72638"><defs><radialGradient id="radial-gradient" cx="-3825.62844" cy="-828.2521" r="1.00002" gradientTransform="matrix(16.93065, 0, 0, -16.93065, 64791.13791, -14003.03221)" gradientUnits="userSpaceOnUse"><stop offset="0" stop-color="#fff"/><stop offset="1"/></radialGradient><clipPath id="clip-path"><rect x="3.64619" y="2.68385" width="34.25529" height="34.25529" style="fill:none"/></clipPath><clipPath id="clip-path-3"><path d="M3.87819,19.77814a17.00044,17.00044,0,0,0,17,17,16.82266,16.82266,0,0,0,16.791-17,16.7655,16.7655,0,0,0-16.791-16.933,16.94338,16.94338,0,0,0-17,16.933" style="fill:none"/></clipPath><mask id="mask" x="3.87819" y="2.84514" width="33.79099" height="33.933" maskUnits="userSpaceOnUse"><rect x="3.87819" y="2.84515" width="33.79099" height="33.933" style="fill:url(#radial-gradient)"/></mask><radialGradient id="radial-gradient-2" cx="-3825.62846" cy="-828.2521" r="1.00002" gradientTransform="matrix(16.93065, 0, 0, -16.93065, 64791.14567, -14003.0337)" gradientUnits="userSpaceOnUse"><stop offset="0"/><stop offset="1"/></radialGradient><clipPath id="clip-path-4"><rect x="7.32019" y="9.17214" width="22.907" height="21.279" style="fill:none"/></clipPath></defs><title>Input Adaptor Node Active_1</title><g id="Layer_11" data-name="Layer 11"><circle cx="20.62457" cy="19.65588" r="18.68333" style="fill:#c93"/><g id="model_node_icon" data-name="model node icon"><g style="clip-path:url(#clip-path)"><g style="clip-path:url(#clip-path)"><g style="clip-path:url(#clip-path-3)"><g style="mask:url(#mask)"><rect x="3.87819" y="2.84514" width="33.79099" height="33.933" style="fill:url(#radial-gradient-2)"/></g></g><g style="clip-path:url(#clip-path-4)"><polygon points="10.386 9.616 10.386 17.093 20.124 17.278 20.124 13.034 27.512 19.781 20.124 26.23 19.922 22.421 10.386 22.483 10.386 29.947 29.86 29.947 29.86 9.616 10.386 9.616" style="fill:#c93"/><path d="M29.26739,29.51994v-19.417h-18.288v5.086a.47967.47967,0,0,1-.959,0v-5.552a.47174.47174,0,0,1,.479-.465h19.248a.47262.47262,0,0,1,.48.465v20.349a.47262.47262,0,0,1-.48.465m0-21.279a.47262.47262,0,0,1,.48.465v20.349a.47262.47262,0,0,1-.48.465H10.4994a.47174.47174,0,0,1-.479-.465v-5.552a.47967.47967,0,0,1,.959,0v5.086h18.288v-19.417" style="fill:#cc6"/><path d="M19.87619,27.14564a.544.544,0,0,0,.542-.082l7.772-7.037c.093-.086.283-.206.283-.334v-.003c0-.129-.167-.25-.264-.337l-7.691-6.798a.69661.69661,0,0,0-.617-.075c-.164.072-.4.236-.4.414v3.861H7.77519c-.252,0-.455.347-.455.598,0,.252.203.599.455.599h12.386c.25,0,.537-.391.537-.643v-2.965l5.938,5.372-5.938,5.238v-3.057a.52694.52694,0,0,0-.537-.447H7.77519c-.252,0-.455.407-.455.658,0,.25.203.627.455.627h11.726v3.995c0,.18.21.344.375.416" style="fill:#cc6"/></g></g></g></g></g></svg>