<svg xmlns="http://www.w3.org/2000/svg" xmlns:xlink="http://www.w3.org/1999/xlink" viewBox="0 0 37.13528 38.5633"><defs><radialGradient id="radial-gradient" cx="-3885.89301" cy="-829.76438" r="1.00002" gradientTransform="matrix(16.93065, 0, 0, -16.93065, 65808.54424, -14028.79317)" gradientUnits="userSpaceOnUse"><stop offset="0" stop-color="#fff"/><stop offset="1"/></radialGradient><clipPath id="clip-path"><rect x="0.73434" y="2.52667" width="34.25529" height="34.25529" style="fill:none"/></clipPath><clipPath id="clip-path-3"><path d="M.96634,19.621a17.00044,17.00044,0,0,0,17,17,16.82266,16.82266,0,0,0,16.791-17,16.7655,16.7655,0,0,0-16.791-16.933,16.94338,16.94338,0,0,0-17,16.933" style="fill:none"/></clipPath><mask id="mask" x="0.96634" y="2.68797" width="33.79099" height="33.933" maskUnits="userSpaceOnUse"><rect x="0.96634" y="2.68798" width="33.79099" height="33.933" style="fill:url(#radial-gradient)"/></mask><radialGradient id="radial-gradient-2" cx="-3885.89304" cy="-829.76437" r="1.00002" gradientTransform="matrix(16.93065, 0, 0, -16.93065, 65808.55212, -14028.79466)" gradientUnits="userSpaceOnUse"><stop offset="0"/><stop offset="1"/></radialGradient><clipPath id="clip-path-4"><rect x="3.76734" y="8.81597" width="26.47" height="21.678" style="fill:none"/></clipPath></defs><title>Input Adaptor Node_1</title><g id="Layer_12" data-name="Layer 12"><g id="model_node_icon" data-name="model node icon"><g style="clip-path:url(#clip-path)"><g style="clip-path:url(#clip-path)"><g style="clip-path:url(#clip-path-3)"><g style="mask:url(#mask)"><rect x="0.96634" y="2.68797" width="33.79099" height="33.933" style="fill:url(#radial-gradient-2)"/></g></g><g style="clip-path:url(#clip-path-4)"><polygon points="29.477 29.304 17.279 29.304 17.279 23.455 21.454 19.466 17.279 15.515 17.279 10.211 29.477 10.211 29.477 29.304" style="fill:#c93;fill-rule:evenodd"/><path d="M28.74544,29.04507v-18.782h-10.714v3.091a.74582.74582,0,0,1-1.491,0v-3.815a.73492.73492,0,0,1,.745-.724h12.206a.73516.73516,0,0,1,.746.724v20.23a.73515.73515,0,0,1-.746.724m0-21.678a.73516.73516,0,0,1,.746.724v20.23a.73515.73515,0,0,1-.746.724h-12.206a.73492.73492,0,0,1-.745-.724v-4.435a.74582.74582,0,0,1,1.491,0v3.711h10.714v-18.782" style="fill:#cc6"/><path d="M11.65514,28.34527a.64656.64656,0,0,0,.642-.097l9.21-8.339c.11-.102.335-.245.335-.395v-.003c0-.154-.197-.299-.312-.399l-9.113-8.058a.83248.83248,0,0,0-.733-.09c-.194.087-.472.28-.472.493v4.574h-6.906c-.298,0-.54.411-.54.709s.242.709.54.709h7.686c.299,0,.638-.464.638-.76v-3.513l7.036,6.365-7.036,6.206v-3.623a.62558.62558,0,0,0-.638-.53h-7.686c-.298,0-.54.483-.54.781s.242.744.54.744h6.906v4.732c0,.215.247.409.443.494" style="fill:#cc6"/></g></g></g></g></g></svg>