<svg xmlns="http://www.w3.org/2000/svg" xmlns:xlink="http://www.w3.org/1999/xlink" viewBox="0 0 40.97123 40.72638"><defs><radialGradient id="radial-gradient" cx="-3825.62844" cy="-828.2521" r="1.00002" gradientTransform="matrix(16.93065, 0, 0, -16.93065, 64791.13791, -14003.03221)" gradientUnits="userSpaceOnUse"><stop offset="0" stop-color="#fff"/><stop offset="1"/></radialGradient><clipPath id="clip-path"><rect x="3.64619" y="2.68385" width="34.25529" height="34.25529" style="fill:none"/></clipPath><clipPath id="clip-path-3"><path d="M3.87819,19.77814a17.00044,17.00044,0,0,0,17,17,16.82266,16.82266,0,0,0,16.791-17,16.7655,16.7655,0,0,0-16.791-16.933,16.94338,16.94338,0,0,0-17,16.933" style="fill:none"/></clipPath><mask id="mask" x="3.87819" y="2.84514" width="33.79099" height="33.933" maskUnits="userSpaceOnUse"><rect x="3.87819" y="2.84515" width="33.79099" height="33.933" style="fill:url(#radial-gradient)"/></mask><radialGradient id="radial-gradient-2" cx="-3825.62846" cy="-828.2521" r="1.00002" gradientTransform="matrix(16.93065, 0, 0, -16.93065, 64791.14567, -14003.0337)" gradientUnits="userSpaceOnUse"><stop offset="0"/><stop offset="1"/></radialGradient><clipPath id="clip-path-4"><rect x="6.67919" y="8.97314" width="26.47" height="21.678" style="fill:none"/></clipPath></defs><title>Input Adaptor Node Active_1</title><g id="Layer_11" data-name="Layer 11"><circle cx="20.62457" cy="19.65588" r="18.68333" style="fill:#c93"/><g id="model_node_icon" data-name="model node icon"><g style="clip-path:url(#clip-path)"><g style="clip-path:url(#clip-path)"><g style="clip-path:url(#clip-path-3)"><g style="mask:url(#mask)"><rect x="3.87819" y="2.84514" width="33.79099" height="33.933" style="fill:url(#radial-gradient-2)"/></g></g><g style="clip-path:url(#clip-path-4)"><polygon points="32.389 29.461 20.191 29.461 20.191 23.612 24.366 19.623 20.191 15.672 20.191 10.368 32.389 10.368 32.389 29.461" style="fill:#c93;fill-rule:evenodd"/><path d="M31.65729,29.20224v-18.782h-10.714v3.091a.74582.74582,0,0,1-1.491,0v-3.815a.73492.73492,0,0,1,.745-.724h12.206a.73516.73516,0,0,1,.746.724v20.23a.73515.73515,0,0,1-.746.724m0-21.678a.73516.73516,0,0,1,.746.724v20.23a.73515.73515,0,0,1-.746.724h-12.206a.73492.73492,0,0,1-.745-.724v-4.435a.74582.74582,0,0,1,1.491,0v3.711h10.714v-18.782" style="fill:#cc6"/><path d="M14.567,28.50244a.64656.64656,0,0,0,.642-.097l9.21-8.339c.11-.102.335-.245.335-.395v-.003c0-.154-.197-.299-.312-.399l-9.113-8.058a.83248.83248,0,0,0-.733-.09c-.194.087-.472.28-.472.493v4.574H7.218c-.298,0-.54.411-.54.709s.242.709.54.709h7.686c.299,0,.638-.464.638-.76v-3.513l7.036,6.365-7.036,6.206v-3.623a.62558.62558,0,0,0-.638-.53H7.218c-.298,0-.54.483-.54.781s.242.744.54.744h6.906v4.732c0,.215.247.409.443.494" style="fill:#cc6"/></g></g></g></g></g></svg>