<svg id="Layer_1" data-name="Layer 1" xmlns="http://www.w3.org/2000/svg" viewBox="0 0 404.205 113.403">
  <defs>
    <style>
      .cls-1, .cls-2 {
        fill: none;
        stroke: #ccc;
        stroke-miterlimit: 10;
      }

      .cls-1 {
        stroke-linecap: round;
      }

      .cls-3 {
        fill: #fc0;
      }

      .cls-4 {
        fill: #ffc;
      }

      .cls-5 {
        fill: #fff;
      }
    </style>
  </defs>
  <title>81deb790-4766-4d20-9cfb-8d5d0e1e11c9</title>
  <rect width="404.205" height="105.334"/>
  <g>
    <g>
      <line class="cls-1" x1="47.664" y1="74.232" x2="46.222" y2="86.215"/>
      <line class="cls-2" x1="35.625" y1="74.456" x2="33.631" y2="84.149"/>
      <path class="cls-1" d="M33.372,91.091l0.26-6.521s-4.545-1.117-6.046-.421"/>
      <path class="cls-1" d="M37.625,86.928s-3-2.2-3.993-2.357"/>
      <polyline class="cls-1" points="46.895 90.997 46.222 86.334 42.205 87.334"/>
      <path class="cls-1" d="M51.21,88.091s-4.577-1.072-4.988-1.837"/>
    </g>
    <path class="cls-3" d="M24.86,67.433s1.145,8.778,18.988,8.11S59.973,61.994,59.973,61.994A84,84,0,0,0,54.057,31.27s-3.435-7.252-2.195-12.118c0,0-4.44-3.435-9.424,7.729,0,0-4.411-11.354-13.953-10.687,0,0,5.248,15.362-2.481,30.151A30.924,30.924,0,0,0,24.86,67.433Z"/>
    <ellipse cx="52.36" cy="46.916" rx="1.474" ry="1.964"/>
    <ellipse cx="46.424" cy="46.181" rx="1.702" ry="2.266"/>
    <path d="M34.523,33.166a25.051,25.051,0,0,0,.142-3.026c0-.453-0.03-0.944-0.048-1.461-0.056-.515-0.059-1.061-0.14-1.617a18.774,18.774,0,0,0-.688-3.417,14.3,14.3,0,0,0-.613-1.631c-0.267-.5-0.512-1-0.781-1.461-0.307-.429-0.529-0.9-0.829-1.282C31.249,18.911,31,18.5,30.7,18.2s-0.591-.576-0.843-0.835c-0.264-.24-0.534-0.4-0.734-0.576C28.7,16.473,28.46,16.26,28.46,16.26l0.052-.131s0.3,0.061.833,0.222a6.291,6.291,0,0,1,.958.327c0.337,0.192.724,0.414,1.137,0.678a9.066,9.066,0,0,1,1.177,1.051,9.173,9.173,0,0,1,1.048,1.415,14.621,14.621,0,0,1,.737,1.711c0.148,0.612.388,1.207,0.476,1.833a19.766,19.766,0,0,1,.411,3.641,22.366,22.366,0,0,1-.134,3.159,25.245,25.245,0,0,1-.5,3.026Z"/>
    <g>
      <path class="cls-4" d="M46.519,53.025a73.476,73.476,0,0,0,7.315,1.57s1.336,8.687-1.129,9.331a17.168,17.168,0,0,1-3.9.644s-2.846.065-2.568-1.971c1.537-2.735,1.054-8.94,1.054-8.94s0.484,6.2-1.054,8.94a3.254,3.254,0,0,1-.374.54c-1.988,2.29-7.172-1.145-7.172-1.145S38.123,50.926,46.519,53.025Z"/>
      <path d="M46.536,52.957c1.211,0.3,2.428.57,3.658,0.781,1.231,0.193,2.469.382,3.692,0.471a0.358,0.358,0,0,1,.324.283l0.009,0.044a25.779,25.779,0,0,1,.582,4.419,14.676,14.676,0,0,1-.076,2.27,5.639,5.639,0,0,1-.7,2.332,1.927,1.927,0,0,1-1.2.912c-0.353.072-.727,0.147-1.1,0.207a19.161,19.161,0,0,1-2.232.25,5.793,5.793,0,0,1-1.165-.035,4.3,4.3,0,0,1-1.139-.318,2.112,2.112,0,0,1-.965-0.781,1.815,1.815,0,0,1-.214-1.223,0.221,0.221,0,0,1,.023-0.073l0-.008a6.606,6.606,0,0,0,.436-1,7.775,7.775,0,0,0,.28-1.076,14.11,14.11,0,0,0,.267-2.227c0.045-.749.029-1.5,0-2.252s-0.081-1.505-.169-2.238l0.873-.068a28.117,28.117,0,0,1,.162,4.463,16.554,16.554,0,0,1-.23,2.255,11.141,11.141,0,0,1-.25,1.135A6.871,6.871,0,0,1,47,62.615a3.607,3.607,0,0,1-.715,1.112,2.7,2.7,0,0,1-.562.458,2.737,2.737,0,0,1-.652.3,4.8,4.8,0,0,1-2.556.018,10.973,10.973,0,0,1-2.211-.781A16.78,16.78,0,0,1,38.3,62.593l-0.014-.009a0.688,0.688,0,0,1-.306-0.552,13.052,13.052,0,0,1,.09-1.876,13.367,13.367,0,0,1,.324-1.83,9.57,9.57,0,0,1,1.525-3.411,5.984,5.984,0,0,1,1.332-1.334,5.229,5.229,0,0,1,.816-0.466,6.1,6.1,0,0,1,1.787-.438,6.41,6.41,0,0,1,.908,0A8.9,8.9,0,0,1,46.536,52.957Zm-0.034.137a8.733,8.733,0,0,0-1.75-.226,5.344,5.344,0,0,0-.874.059,4.705,4.705,0,0,0-.842.2,4.627,4.627,0,0,0-.775.364,4.749,4.749,0,0,0-.677.508,5.089,5.089,0,0,0-1.023,1.327,9.693,9.693,0,0,0-.975,3.233c-0.077.565-.136,1.133-0.166,1.7s-0.034,1.158-.009,1.691l-0.32-.561a15.435,15.435,0,0,0,1.841.968,10.944,10.944,0,0,0,1.92.679,3.782,3.782,0,0,0,1.782.05,1.31,1.31,0,0,0,.346-0.144,1.013,1.013,0,0,0,.293-0.223,2.293,2.293,0,0,0,.479-0.714,5.568,5.568,0,0,0,.365-0.913,9.8,9.8,0,0,0,.257-1c0.136-.684.415-1.386,0.487-2.1C47,56.582,47.2,55.125,47.2,53.693V53.637c0-.241.018-0.439,0.259-0.441a0.37,0.37,0,0,1,.354.43,36.362,36.362,0,0,1-.244,4.6,21.124,21.124,0,0,1-.369,2.276c-0.038.189-.091,0.377-0.147,0.563s-0.1.376-.165,0.559a7.052,7.052,0,0,1-.451,1.089l0.026-.08a1.234,1.234,0,0,0,.188.884,1.5,1.5,0,0,0,.756.521,3.686,3.686,0,0,0,.991.171,5.057,5.057,0,0,0,1.023-.073,19.024,19.024,0,0,0,2.1-.443c0.346-.091.681-0.192,1.037-0.3a0.938,0.938,0,0,0,.448-0.45,5.561,5.561,0,0,0,.47-1.861c0.066-.688.106-1.4,0.109-2.109,0-1.424-.031-2.881-0.135-4.317l0.333,0.327c-1.248-.255-2.453-0.588-3.658-0.933S47.712,53.4,46.5,53.093Z"/>
    </g>
  </g>
  <g>
    <path class="cls-5" d="M107.7,70.3h3.628L98.916,51.283h-5.3V70.3h4.064v4.935H81.79V70.3h4.354V27.19H81.79V22.256h15.6V27.19H93.618V45.477h5.733L110.6,27.19H106.68V22.256h15.748V27.19h-3.991L105.011,48.525,119.381,70.3h4.063v4.935H107.7V70.3Z"/>
    <path class="cls-5" d="M152.254,71.095a22.2,22.2,0,0,1-14.006,5.152q-6.532,0-9.361-2.975t-2.831-8.636q0-6.315,2.686-9.217t10.3-3.483l11.829-.726V44.752A5.345,5.345,0,0,0,148.7,40a9.848,9.848,0,0,0-5.661-1.488q-5.08,0-7,1.851t-2.141,5.915l-6.1-.29q0.507-6.677,3.81-9.979t11.647-3.3q14.949,0,14.949,11.61V70.3h4.354v4.935h-9.144Zm-1.379-4.789V56.363l-10.45.653q-4.283.217-5.77,1.777t-1.487,5.625q0,3.265,1.6,4.789t5.37,1.524A15.1,15.1,0,0,0,150.875,66.305Z"/>
    <path class="cls-5" d="M188.32,70.3h4.063v-23.8q0-3.99-1.633-5.987t-5.479-2a16.2,16.2,0,0,0-10.74,4.137V70.3h4.354v4.935H162.847V70.3H167.2V38.656h-4.354V33.721h8.636l1.887,3.919a20.2,20.2,0,0,1,13.063-4.935q8.492,0,11.611,5.515a21.762,21.762,0,0,1,6.313-3.955,19.28,19.28,0,0,1,7.548-1.56q13.062,0,13.063,13.063V70.3h4.354v4.935h-16.11V70.3h4.354v-23.8a9.493,9.493,0,0,0-1.6-5.951q-1.6-2.03-5.37-2.032a16.59,16.59,0,0,0-11.1,4.5,16.839,16.839,0,0,1,.217,2.758V70.3h4.137v4.935H188.32V70.3Z"/>
    <path class="cls-5" d="M257.188,71.095a22.2,22.2,0,0,1-14.006,5.152q-6.532,0-9.361-2.975t-2.831-8.636q0-6.315,2.686-9.217t10.3-3.483l11.829-.726V44.752A5.345,5.345,0,0,0,253.633,40a9.848,9.848,0,0,0-5.661-1.488q-5.08,0-7,1.851t-2.141,5.915l-6.1-.29q0.507-6.677,3.81-9.979t11.647-3.3q14.949,0,14.949,11.61V70.3h4.354v4.935h-9.144Zm-1.379-4.789V56.363l-10.45.653q-4.283.217-5.77,1.777T238.1,64.419q0,3.265,1.6,4.789t5.37,1.524A15.1,15.1,0,0,0,255.809,66.305Z"/>
    <path class="cls-5" d="M267.782,33.721h8.346l2.25,4.137a24.9,24.9,0,0,1,14.8-5.152q12.554,0,12.555,13.135V70.3h4.354v4.935H294.27V70.3h4.063V46.276q0-4.208-1.56-5.987t-5.262-1.778a19.242,19.242,0,0,0-12.047,4.5V70.3h4.064v4.935H267.782V70.3h4.354V38.656h-4.354V33.721Z"/>
    <path class="cls-5" d="M311.323,33.721h11.684V79.586q0,5.805-2.177,8.563t-8.418,2.758h-6.459v-5.37l4.717-.362q3.048-.292,4.028-1.67t0.979-4.789V38.656h-4.354V33.721Zm5.588-6.641a3.113,3.113,0,0,1-1.2-1.741,12.911,12.911,0,0,1-.182-2.431,13.428,13.428,0,0,1,.182-2.5,3.124,3.124,0,0,1,1.2-1.742,4.466,4.466,0,0,1,2.9-.834,6.44,6.44,0,0,1,2.467.4,2.357,2.357,0,0,1,1.307,1.234,6.318,6.318,0,0,1,.472,1.56,13.279,13.279,0,0,1,.108,1.888,11.833,11.833,0,0,1-.108,1.777,6.962,6.962,0,0,1-.472,1.561,2.33,2.33,0,0,1-1.307,1.27,6.4,6.4,0,0,1-2.467.4A4.455,4.455,0,0,1,316.911,27.081Z"/>
    <path class="cls-5" d="M354.575,71.095a22.2,22.2,0,0,1-14.006,5.152q-6.532,0-9.361-2.975t-2.831-8.636q0-6.315,2.686-9.217t10.3-3.483l11.829-.726V44.752A5.345,5.345,0,0,0,351.019,40a9.848,9.848,0,0,0-5.661-1.488q-5.08,0-7,1.851t-2.141,5.915l-6.1-.29q0.507-6.677,3.81-9.979t11.647-3.3q14.949,0,14.949,11.61V70.3h4.354v4.935h-9.144ZM353.2,66.305V56.363l-10.45.653q-4.283.217-5.77,1.777t-1.487,5.625q0,3.265,1.6,4.789t5.37,1.524A15.1,15.1,0,0,0,353.2,66.305Z"/>
  </g>
</svg>
