<svg xmlns="http://www.w3.org/2000/svg" xmlns:xlink="http://www.w3.org/1999/xlink" viewBox="0 0 37.13528 38.5633"><defs><radialGradient id="radial-gradient" cx="-3888.18466" cy="-65.62149" r="0.99999" gradientTransform="matrix(17.12763, 0, 0, -17.12763, 66614.58693, -1105.44949)" gradientUnits="userSpaceOnUse"><stop offset="0" stop-color="#fff"/><stop offset="1"/></radialGradient><clipPath id="clip-path"><rect x="2.06284" y="1.36345" width="34.25529" height="34.25529" style="fill:none"/></clipPath><clipPath id="clip-path-3"><circle cx="19.19059" cy="18.49099" r="17.1275" style="fill:none"/></clipPath><mask id="mask" x="2.06284" y="1.36375" width="34.255" height="34.255" maskUnits="userSpaceOnUse"><rect x="2.06284" y="1.36375" width="34.255" height="34.255" style="fill:url(#radial-gradient)"/></mask><radialGradient id="radial-gradient-2" cx="-3888.18466" cy="-65.62149" r="0.99999" gradientTransform="matrix(17.12763, 0, 0, -17.12763, 66614.58693, -1105.44949)" gradientUnits="userSpaceOnUse"><stop offset="0"/><stop offset="1"/></radialGradient><clipPath id="clip-path-4"><rect x="9.13684" y="9.43774" width="22.109" height="22.108" style="fill:none"/></clipPath></defs><title>Message Node</title><g id="Layer_12" data-name="Layer 12"><g id="model_node_icon" data-name="model node icon"><g style="clip-path:url(#clip-path)"><g style="clip-path:url(#clip-path)"><g style="clip-path:url(#clip-path-3)"><g style="mask:url(#mask)"><rect x="2.06284" y="1.36375" width="34.255" height="34.255" style="fill:url(#radial-gradient-2)"/></g></g><g style="clip-path:url(#clip-path-4)"><path d="M29.42964,10.07284h-18.702a.9.9,0,0,0-.906.89v13.349c0,.4.624.456,1.033.456l1.219-.027c.858,0,1.608-.066,1.608.778v5.348l6.663-5.704a.64055.64055,0,0,1,.362-.109l8.896-.715a.79609.79609,0,0,0,.807-.738v-12.565a.97359.97359,0,0,0-.98-.963m-13.617,8.438a.98411.98411,0,1,1,.999-.984.99366.99366,0,0,1-.999.984m4.345,0a.9841.9841,0,1,1,.998-.984.99343.99343,0,0,1-.998.984m4.346,0a.98413.98413,0,1,1,1-.984.99321.99321,0,0,1-1,.984" style="fill:#fc9"/><path d="M15.81215,16.54375a.98411.98411,0,1,0,.999.984.99366.99366,0,0,0-.999-.984m-.127.984a.12613.12613,0,0,1,.127-.125.12483.12483,0,0,1,.124.125c0,.138-.251.135-.251,0m4.473-.984a.98408.98408,0,1,0,.997.984.99343.99343,0,0,0-.997-.984m-.126.984a.12591.12591,0,0,1,.126-.125.12444.12444,0,0,1,.122.125c0,.139-.248.137-.248,0m4.471-.984a.98413.98413,0,1,0,1,.984.99321.99321,0,0,0-1-.984m-.126.984a.126.126,0,0,1,.252,0c0,.137-.25.137-.252,0m5.243-8.09-18.907.001a1.602,1.602,0,0,0-1.576,1.596v12.567a1.60635,1.60635,0,0,0,1.59,1.597h2.367v5.917a.432.432,0,0,0,.258.392.45447.45447,0,0,0,.18.038.44115.44115,0,0,0,.29-.109l7.123-6.232,8.675-.006a1.614,1.614,0,0,0,1.625-1.597v-12.567a1.614,1.614,0,0,0-1.625-1.597m.75,14.164a.74464.74464,0,0,1-.752.736l-8.84.006a.44245.44245,0,0,0-.29.109l-6.518,5.704v-5.389a.4343.4343,0,0,0-.438-.43h-2.791a.74052.74052,0,0,1-.73-.736v-12.567a.7379.7379,0,0,1,.716-.736l18.893-.002a.74588.74588,0,0,1,.75.738Z" style="fill:#f93"/></g></g></g></g></g></svg>