<svg xmlns="http://www.w3.org/2000/svg" xmlns:xlink="http://www.w3.org/1999/xlink" viewBox="0 0 32.31993 34.25529"><defs><clipPath id="clip-path"><rect x="0.6969" y="1.67014" width="30" height="30.50653" style="fill:none"/></clipPath><clipPath id="clip-path-2"><rect x="0.6969" y="1.6696" width="30.00071" height="30.50706" style="fill:none"/></clipPath></defs><title>message node detail icon</title><g id="Layer_10" data-name="Layer 10"><g id="model_icon" data-name="model icon"><g style="clip-path:url(#clip-path)"><g style="clip-path:url(#clip-path-2)"><path d="M27.37137,3.75754H3.73852A1.13842,1.13842,0,0,0,2.59311,4.882V21.75063c0,.50636.78922.5762,1.306.5762l1.54-.03318c1.0843,0,2.03241-.08381,2.03241.983v6.75723l8.41947-7.20771a.816.816,0,0,1,.45747-.13794l11.2411-.90271a1.006,1.006,0,0,0,1.0197-.93239V4.97454a1.23043,1.23043,0,0,0-1.238-1.217M10.164,14.42069a1.24334,1.24334,0,1,1,1.2624-1.24319,1.2554,1.2554,0,0,1-1.2624,1.24319m5.49134,0A1.24331,1.24331,0,1,1,16.916,13.1775a1.2554,1.2554,0,0,1-1.26065,1.24319m5.49134,0a1.24336,1.24336,0,1,1,1.26414-1.24319,1.255,1.255,0,0,1-1.26414,1.24319" style="fill:#fc9"/><path d="M10.16348,11.935a1.24334,1.24334,0,1,0,1.2624,1.24319,1.2554,1.2554,0,0,0-1.2624-1.24319m-.16064,1.24319a.1595.1595,0,0,1,.16064-.15715.1576.1576,0,0,1,.15715.15715c0,.1746-.31778.17111-.31778,0m5.652-1.24319a1.24331,1.24331,0,1,0,1.26065,1.24319A1.255,1.255,0,0,0,15.65482,11.935m-.15889,1.24319a.15912.15912,0,0,1,.15889-.15715.15725.15725,0,0,1,.1554.15715c0,.17635-.31429.17286-.31429,0M21.14616,11.935a1.24336,1.24336,0,1,0,1.26414,1.24319A1.255,1.255,0,0,0,21.14616,11.935m-.15889,1.24319a.1589.1589,0,0,1,.31778,0c0,.17286-.316.17286-.31778,0M27.6118,2.955,3.72054,2.9568A2.0248,2.0248,0,0,0,1.72829,4.97349V20.85385A2.03094,2.03094,0,0,0,3.738,22.87229H6.729V30.3489a.548.548,0,0,0,.32651.49588.57492.57492,0,0,0,.227.04714.55393.55393,0,0,0,.36667-.13794l9.00091-7.87471,10.96173-.007a2.03941,2.03941,0,0,0,2.05336-2.01844V4.97349A2.03941,2.03941,0,0,0,27.6118,2.955m.94811,17.8988a.94131.94131,0,0,1-.94985.93065l-11.17126.007a.55617.55617,0,0,0-.36667.13794L7.836,29.13714V22.32752a.54815.54815,0,0,0-.5535-.543h-3.527a.9364.9364,0,0,1-.92192-.93065V4.97349A.93316.93316,0,0,1,3.738,4.04284L27.6118,4.0411a.94238.94238,0,0,1,.94811.93239Z" style="fill:#f93"/></g></g></g></g></svg>