<svg xmlns="http://www.w3.org/2000/svg" xmlns:xlink="http://www.w3.org/1999/xlink" viewBox="0 0 37.32782 37.36666"><defs><radialGradient id="radial-gradient" cx="-3888.14689" cy="161.93292" r="0.99999" gradientTransform="matrix(17.12763, 0, 0, -17.12763, 66613.54105, 2792.65535)" gradientUnits="userSpaceOnUse"><stop offset="0" stop-color="#fff"/><stop offset="1"/></radialGradient><clipPath id="clip-path"><rect x="1.66391" y="2" width="34.25529" height="34.25529" style="fill:none"/></clipPath><clipPath id="clip-path-3"><circle cx="18.79166" cy="19.12754" r="17.1275" style="fill:none"/></clipPath><mask id="mask" x="1.66391" y="2.0003" width="34.255" height="34.255" maskUnits="userSpaceOnUse"><rect x="1.66391" y="2.0003" width="34.255" height="34.255" style="fill:url(#radial-gradient)"/></mask><radialGradient id="radial-gradient-2" cx="-3888.14689" cy="161.93292" r="0.99999" gradientTransform="matrix(17.12763, 0, 0, -17.12763, 66613.54105, 2792.65535)" gradientUnits="userSpaceOnUse"><stop offset="0"/><stop offset="1"/></radialGradient><clipPath id="clip-path-4"><rect x="8.77691" y="7.12429" width="20.03" height="24.006" style="fill:none"/></clipPath></defs><title>model node</title><g id="Layer_12" data-name="Layer 12"><g id="model_node_icon" data-name="model node icon"><g style="clip-path:url(#clip-path)"><g style="clip-path:url(#clip-path)"><g style="clip-path:url(#clip-path-3)"><g style="mask:url(#mask)"><rect x="1.66391" y="2.0003" width="34.255" height="34.255" style="fill:url(#radial-gradient-2)"/></g></g><g style="clip-path:url(#clip-path-4)"><polygon points="9.29 15.283 9.186 23.271 18.345 30.48 18.606 22.23 28.285 15.387 18.606 7.632 9.29 15.283" style="fill:#96f"/><polygon points="18.294 22.647 18.345 30.48 28.546 22.972 27.808 15.465 18.294 22.647" style="fill:#96f"/><path d="M28.76431,15.2324a.53549.53549,0,0,0-.045-.125,3.70946,3.70946,0,0,1-.072-.127.69354.69354,0,0,0-.058-.05c-.013-.013-.02-.031-.035-.042l-9.633-7.655a.49962.49962,0,0,0-.628.004l-9.367,7.655c-.014.012-.02.029-.033.042a.46019.46019,0,0,0-.047.041.36058.36058,0,0,0-.026.052.39494.39494,0,0,0-.039.08c-.015.04.009.08.005.122-.002.017.021.033.021.05v7.986a.47457.47457,0,0,0,.158.393l9.351,7.365c.009.007.012.004.021.01a.47813.47813,0,0,0,.276.097.48483.48483,0,0,0,.279-.097c.008-.006.019-.003.027-.01l9.665-7.584a.53342.53342,0,0,0,.223-.393v-7.767c0-.016-.042-.031-.043-.047m-10.15-6.965,8.809,7-8.809,6.571-8.567-6.571Zm-8.807,8.026,8,6.418v6.89l-8-6.579Zm9,13.307v-6.884l9-6.44v6.527Z" style="fill:#93f"/></g></g></g></g></g></svg>