<svg xmlns="http://www.w3.org/2000/svg" xmlns:xlink="http://www.w3.org/1999/xlink" viewBox="0 0 33.92753 39.70394"><defs><clipPath id="clip-path"><rect x="1.96377" y="1.72452" width="30" height="35.95266" style="fill:none"/></clipPath><clipPath id="clip-path-2"><rect x="1.96377" y="1.72408" width="29.99985" height="35.9531" style="fill:none"/></clipPath></defs><title>model node detail icon</title><g id="Layer_10" data-name="Layer 10"><g id="model_icon" data-name="model icon"><g style="clip-path:url(#clip-path)"><polygon points="2.733 13.943 2.578 25.907 16.295 36.703 16.686 24.348 31.182 14.099 16.686 2.485 2.733 13.943" style="fill:#96f"/><polygon points="16.218 24.972 16.294 36.703 31.572 25.459 30.467 14.216 16.218 24.972" style="fill:#96f"/><g style="clip-path:url(#clip-path-2)"><path d="M31.89937,13.86735a.80209.80209,0,0,0-.0674-.18721,5.56408,5.56408,0,0,1-.10783-.1902,1.03779,1.03779,0,0,0-.08687-.07489c-.01947-.01947-.03-.04643-.05242-.0629L17.15779,1.88747a.74827.74827,0,0,0-.94054.006L2.18857,13.35814c-.021.018-.03.04343-.04942.0629a.68922.68922,0,0,0-.07039.06141.54.54,0,0,0-.03894.07788.59149.59149,0,0,0-.05841.11981c-.02247.05991.01348.11981.00749.18272-.003.02546.03145.04942.03145.07488v11.9604a.71076.71076,0,0,0,.23663.58859L16.2517,37.51708c.01348.01048.018.006.03145.015a.71609.71609,0,0,0,.41336.14527.72611.72611,0,0,0,.41785-.14527c.012-.009.02846-.00449.04044-.015l14.475-11.35834a.79889.79889,0,0,0,.334-.58859V13.93774c0-.024-.0629-.04643-.0644-.07039M16.698,3.43607l13.193,10.4837L16.698,23.761,3.86746,13.91977ZM3.508,15.45638l11.98137,9.61205v10.319L3.508,25.53421Zm13.479,19.92951v-10.31l13.479-9.645v9.7753Z" style="fill:#93f"/></g></g></g></g></svg>