<svg xmlns="http://www.w3.org/2000/svg" xmlns:xlink="http://www.w3.org/1999/xlink" viewBox="0 0 31.0448 29.5652"><defs><clipPath id="clip-path"><rect width="31.0448" height="29.5652" style="fill:none"/></clipPath></defs><title>Artboard 42</title><g id="Layer_5" data-name="Layer 5"><g id="purple_edge_icon" data-name="purple edge icon"><g style="clip-path:url(#clip-path)"><g style="clip-path:url(#clip-path)"><path d="M9.5233,29.5652a3.53347,3.53347,0,0,1-1.711-.572,15.52183,15.52183,0,1,1,15.019.223,2.607,2.607,0,0,1-1.107.249c-.419,0-1.785-.151-1.785-2.091v-7.55a1.78308,1.78308,0,0,1,1.781-1.781h1.756a.6432.6432,0,0,0,.143-.013.71393.71393,0,0,0-.077-.12l-7.678-9.954a.39819.39819,0,0,0-.684,0l-7.678,9.954a.75672.75672,0,0,0-.077.12.6432.6432,0,0,0,.143.013h1.756a1.78308,1.78308,0,0,1,1.781,1.781v7.677c0,1.863-1.106,2.064-1.582,2.064m5.999-28.502a14.45863,14.45863,0,0,0-7.19,27.003l.03.017a2.50676,2.50676,0,0,0,1.161.419c.168,0,.519,0,.519-1.001v-7.677a.71869.71869,0,0,0-.718-.718H7.5683a1.07653,1.07653,0,0,1-.908-1.846l7.678-9.953a1.44722,1.44722,0,0,1,2.368,0l7.678,9.953a1.07653,1.07653,0,0,1-.908,1.846h-1.756a.71869.71869,0,0,0-.718.718v7.55c0,1.028.487,1.028.722,1.028a1.6301,1.6301,0,0,0,.607-.125,14.45875,14.45875,0,0,0-6.809-27.214" style="fill:#96f"/></g></g></g></g></svg>