<svg xmlns="http://www.w3.org/2000/svg" xmlns:xlink="http://www.w3.org/1999/xlink" viewBox="0 0 32.31993 34.25529"><defs><clipPath id="clip-path"><rect x="3.21691" y="4.5015" width="26.08301" height="25.35439" style="fill:none"/></clipPath><clipPath id="clip-path-2"><rect x="3.21691" y="4.50098" width="26.08317" height="25.35491" style="fill:none"/></clipPath></defs><title>Output Adaptor node detail icon</title><g id="Layer_10" data-name="Layer 10"><g id="model_icon" data-name="model icon"><g style="clip-path:url(#clip-path)"><polygon points="4.482 6.85 4.482 27.563 25.702 27.563 25.702 24.129 25.702 18.088 19.837 23.122 19.77 19.058 7.759 19.096 7.759 14.505 20 14.505 20.039 10.561 25.702 15.311 25.702 11.527 25.702 6.85 4.482 6.85" style="fill:#6dc8bf"/><g style="clip-path:url(#clip-path-2)"><path d="M25.24,28.29726H4.75155a.4972.4972,0,0,1-.51047-.48494V6.66026A.49691.49691,0,0,1,4.75155,6.177H25.24a.49691.49691,0,0,1,.51047.48324V11.0724a.51123.51123,0,0,1-1.02093,0V7.14521H5.262V27.32908H24.72953v-3.267a.51123.51123,0,0,1,1.02093,0v3.75023a.4972.4972,0,0,1-.51047.48494" style="fill:#3ff"/></g><g style="clip-path:url(#clip-path-2)"><path d="M19.6446,23.9195a.5249.5249,0,0,0,.52408-.08l7.53279-6.81814c.09018-.08338.274-.20078.274-.3233V16.693c0-.12421-.16165-.24162-.25523-.325L20.26737,9.77955a.67726.67726,0,0,0-.59895-.07317c-.15825.07147-.38625.228-.38625.40157v3.74172H7.91746c-.24332,0-.4407.33691-.4407.58023s.19738.57853.4407.57853H19.92025c.24332,0,.52068-.37775.52068-.62107V11.51344l5.75467,5.20676-5.75467,5.074V18.83184a.50929.50929,0,0,0-.52068-.4322H7.91746c-.24332,0-.4407.39476-.4407.63808s.19738.60746.4407.60746h11.3647v3.871c0,.17526.20248.33351.36243.40327" style="fill:#3ff"/></g></g></g></g></svg>