<svg xmlns="http://www.w3.org/2000/svg" xmlns:xlink="http://www.w3.org/1999/xlink" viewBox="0 0 37.13528 38.5633"><defs><radialGradient id="radial-gradient" cx="-3878.60823" cy="-1073.37307" r="1.00003" gradientTransform="matrix(16.5, 0, 0, -16.5, 64016.61975, -17692.1257)" gradientUnits="userSpaceOnUse"><stop offset="0" stop-color="#fff"/><stop offset="0.57583" stop-color="#fff"/><stop offset="0.60079" stop-color="#e5e5e5"/><stop offset="0.66374" stop-color="#a9a9a9"/><stop offset="0.72646" stop-color="#767676"/><stop offset="0.78744" stop-color="#4b4b4b"/><stop offset="0.84633" stop-color="#2a2a2a"/><stop offset="0.90258" stop-color="#131313"/><stop offset="0.95504" stop-color="#050505"/><stop offset="1"/></radialGradient><clipPath id="clip-path"><rect x="2.46378" y="1.40007" width="34.25529" height="34.25529" style="fill:none"/></clipPath><clipPath id="clip-path-3"><path d="M3.09078,18.52737a16.5005,16.5005,0,1,0,16.501-16.5,16.5,16.5,0,0,0-16.501,16.5" style="fill:none"/></clipPath><mask id="mask" x="3.09078" y="2.02737" width="33.001" height="33.001" maskUnits="userSpaceOnUse"><rect x="3.09078" y="2.02737" width="33.001" height="33.001" style="fill:url(#radial-gradient)"/></mask><radialGradient id="radial-gradient-2" cx="-3878.60826" cy="-1073.37306" r="1.00003" gradientTransform="matrix(16.5, 0, 0, -16.5, 64016.62763, -17692.12763)" gradientUnits="userSpaceOnUse"><stop offset="0"/><stop offset="0.57583"/><stop offset="1"/></radialGradient><clipPath id="clip-path-4"><rect x="7.75478" y="6.82837" width="24.657" height="22.981" style="fill:none"/></clipPath></defs><title>Output Adaptor Node</title><g id="Layer_12" data-name="Layer 12"><g id="model_node_icon" data-name="model node icon"><g style="clip-path:url(#clip-path)"><g style="clip-path:url(#clip-path)"><g style="clip-path:url(#clip-path-3)"><g style="mask:url(#mask)"><rect x="3.09078" y="2.02737" width="33.001" height="33.001" style="fill:url(#radial-gradient-2)"/></g></g><g style="clip-path:url(#clip-path-4)"><polygon points="8.005 7.528 8.005 29.046 20.239 29.046 20.239 20.211 11.586 20.25 11.586 15.481 20.239 15.481 20.239 7.528 8.005 7.528" style="fill:#6dc8bf"/><path d="M20.732,29.80957H8.286a.5165.5165,0,0,1-.531-.504V7.33157a.51616.51616,0,0,1,.531-.502H20.732a.5159.5159,0,0,1,.53.502v4.584a.53078.53078,0,0,1-1.06,0v-4.08H8.816v20.968H20.202v-3.394a.53078.53078,0,0,1,1.06,0v3.896a.51624.51624,0,0,1-.53.504" style="fill:#3ff"/><path d="M23.75758,25.26167a.54481.54481,0,0,0,.544-.083l7.826-7.083c.094-.087.285-.209.285-.336v-.004c0-.13-.168-.252-.266-.339l-7.742-6.845a.70463.70463,0,0,0-.622-.076c-.165.075-.402.237-.402.418v3.887h-11.806c-.253,0-.458.35-.458.603,0,.252.205.601.458.601h12.469c.253,0,.541-.393.541-.646v-2.985l5.979,5.409-5.979,5.271v-3.077a.52884.52884,0,0,0-.541-.449h-12.469c-.253,0-.458.41-.458.662,0,.253.205.632.458.632h11.806v4.021c0,.182.211.347.377.419" style="fill:#3ff"/></g></g></g></g></g></svg>