<svg xmlns="http://www.w3.org/2000/svg" xmlns:xlink="http://www.w3.org/1999/xlink" viewBox="0 0 40.97123 40.72638"><defs><radialGradient id="radial-gradient" cx="-3819.38353" cy="-1071.66388" r="1.00003" gradientTransform="matrix(16.5, 0, 0, -16.5, 63040.5658, -17661.91402)" gradientUnits="userSpaceOnUse"><stop offset="0" stop-color="#fff"/><stop offset="0.57583" stop-color="#fff"/><stop offset="0.60079" stop-color="#e5e5e5"/><stop offset="0.66374" stop-color="#a9a9a9"/><stop offset="0.72646" stop-color="#767676"/><stop offset="0.78744" stop-color="#4b4b4b"/><stop offset="0.84633" stop-color="#2a2a2a"/><stop offset="0.90258" stop-color="#131313"/><stop offset="0.95504" stop-color="#050505"/><stop offset="1"/></radialGradient><clipPath id="clip-path"><rect x="3.61742" y="3.41023" width="34.25529" height="34.25529" style="fill:none"/></clipPath><clipPath id="clip-path-3"><path d="M4.24442,20.53752a16.5005,16.5005,0,1,0,16.501-16.5,16.5,16.5,0,0,0-16.501,16.5" style="fill:none"/></clipPath><mask id="mask" x="4.24442" y="4.03753" width="33.001" height="33.001" maskUnits="userSpaceOnUse"><rect x="4.24442" y="4.03753" width="33.001" height="33.001" style="fill:url(#radial-gradient)"/></mask><radialGradient id="radial-gradient-2" cx="-3819.38355" cy="-1071.66388" r="1.00003" gradientTransform="matrix(16.5, 0, 0, -16.5, 63040.57356, -17661.91594)" gradientUnits="userSpaceOnUse"><stop offset="0"/><stop offset="0.57583"/><stop offset="1"/></radialGradient><clipPath id="clip-path-4"><rect x="9.79042" y="9.67152" width="22.872" height="21.316" style="fill:none"/></clipPath></defs><title>Output Adaptor Node Active</title><g id="Layer_11" data-name="Layer 11"><circle cx="20.5958" cy="20.38227" r="18.68333" style="fill:#6dc8bf"/><g id="model_node_icon" data-name="model node icon"><g style="clip-path:url(#clip-path)"><g style="clip-path:url(#clip-path)"><g style="clip-path:url(#clip-path-3)"><g style="mask:url(#mask)"><rect x="4.24442" y="4.03753" width="33.001" height="33.001" style="fill:url(#radial-gradient-2)"/></g></g><g style="clip-path:url(#clip-path-4)"><polygon points="10.023 10.319 10.023 30.28 30.472 30.28 30.472 26.971 30.472 21.149 24.82 26 24.756 22.084 13.181 22.12 13.181 17.696 24.977 17.696 25.015 13.895 30.472 18.473 30.472 14.827 30.472 10.319 10.023 10.319" style="fill:#6dc8bf"/><path d="M30.02692,30.98772h-19.744a.47911.47911,0,0,1-.492-.467v-20.384a.47959.47959,0,0,1,.492-.466h19.744a.47959.47959,0,0,1,.492.466v4.252a.49272.49272,0,0,1-.984,0v-3.785h-18.76v19.451h18.76v-3.148a.49272.49272,0,0,1,.984,0v3.614a.47911.47911,0,0,1-.492.467" style="fill:#3ff"/><path d="M24.63472,26.769a.50582.50582,0,0,0,.505-.077l7.259-6.57c.087-.081.264-.194.264-.312v-.005c0-.12-.156-.233-.246-.313l-7.182-6.349a.65048.65048,0,0,0-.577-.071c-.153.069-.372.22-.372.387v3.606h-10.952c-.235,0-.425.325-.425.559,0,.235.19.558.425.558h11.567c.234,0,.501-.364.501-.599V14.814l5.546,5.017-5.546,4.89V21.866a.49036.49036,0,0,0-.501-.416h-11.567c-.235,0-.425.38-.425.615,0,.234.19.585.425.585h10.952v3.73c0,.169.195.322.349.389" style="fill:#3ff"/></g></g></g></g></g></svg>