<svg xmlns="http://www.w3.org/2000/svg" xmlns:xlink="http://www.w3.org/1999/xlink" viewBox="0 0 37.13528 38.5633"><defs><radialGradient id="radial-gradient" cx="-3878.66064" cy="-1073.40721" r="1.00003" gradientTransform="matrix(16.5, 0, 0, -16.5, 64016.61975, -17692.1257)" gradientUnits="userSpaceOnUse"><stop offset="0" stop-color="#fff"/><stop offset="0.57583" stop-color="#fff"/><stop offset="0.60079" stop-color="#e5e5e5"/><stop offset="0.66374" stop-color="#a9a9a9"/><stop offset="0.72646" stop-color="#767676"/><stop offset="0.78744" stop-color="#4b4b4b"/><stop offset="0.84633" stop-color="#2a2a2a"/><stop offset="0.90258" stop-color="#131313"/><stop offset="0.95504" stop-color="#050505"/><stop offset="1"/></radialGradient><clipPath id="clip-path"><rect x="1.59906" y="1.96337" width="34.25529" height="34.25529" style="fill:none"/></clipPath><clipPath id="clip-path-3"><path d="M2.22606,19.09067a16.5005,16.5005,0,1,0,16.501-16.5,16.5,16.5,0,0,0-16.501,16.5" style="fill:none"/></clipPath><mask id="mask" x="2.22606" y="2.59067" width="33.001" height="33.001" maskUnits="userSpaceOnUse"><rect x="2.22606" y="2.59068" width="33.001" height="33.001" style="fill:url(#radial-gradient)"/></mask><radialGradient id="radial-gradient-2" cx="-3878.66067" cy="-1073.4072" r="1.00003" gradientTransform="matrix(16.5, 0, 0, -16.5, 64016.62763, -17692.12763)" gradientUnits="userSpaceOnUse"><stop offset="0"/><stop offset="0.57583"/><stop offset="1"/></radialGradient><clipPath id="clip-path-4"><rect x="7.77206" y="8.22467" width="22.872" height="21.316" style="fill:none"/></clipPath></defs><title>Output Adaptor Node</title><g id="Layer_12" data-name="Layer 12"><g id="model_node_icon" data-name="model node icon"><g style="clip-path:url(#clip-path)"><g style="clip-path:url(#clip-path)"><g style="clip-path:url(#clip-path-3)"><g style="mask:url(#mask)"><rect x="2.22606" y="2.59067" width="33.001" height="33.001" style="fill:url(#radial-gradient-2)"/></g></g><g style="clip-path:url(#clip-path-4)"><polygon points="8.005 8.872 8.005 28.833 28.454 28.833 28.454 25.524 28.454 19.702 22.802 24.553 22.738 20.637 11.163 20.673 11.163 16.249 22.959 16.249 22.997 12.448 28.454 17.026 28.454 13.38 28.454 8.872 8.005 8.872" style="fill:#6dc8bf"/><path d="M28.00856,29.54087H8.26456a.47911.47911,0,0,1-.492-.467V8.68987a.47959.47959,0,0,1,.492-.466h19.744a.47959.47959,0,0,1,.492.466v4.252a.49272.49272,0,0,1-.984,0v-3.785h-18.76v19.451h18.76v-3.148a.49272.49272,0,0,1,.984,0v3.614a.47911.47911,0,0,1-.492.467" style="fill:#3ff"/><path d="M22.61636,25.32217a.50582.50582,0,0,0,.505-.077l7.259-6.57c.087-.081.264-.194.264-.312v-.005c0-.12-.156-.233-.246-.313l-7.182-6.349a.65048.65048,0,0,0-.577-.071c-.153.069-.372.22-.372.387v3.606h-10.952c-.235,0-.425.325-.425.559,0,.235.19.558.425.558h11.567c.234,0,.501-.364.501-.599v-2.769l5.546,5.017-5.546,4.89v-2.855a.49036.49036,0,0,0-.501-.416h-11.567c-.235,0-.425.38-.425.615,0,.234.19.585.425.585h10.952v3.73c0,.169.195.322.349.389" style="fill:#3ff"/></g></g></g></g></g></svg>