<svg xmlns="http://www.w3.org/2000/svg" xmlns:xlink="http://www.w3.org/1999/xlink" viewBox="0 0 37.13528 38.5633"><defs><radialGradient id="radial-gradient" cx="-3884.22848" cy="-310.95507" r="1.00001" gradientTransform="matrix(16.81592, 0, 0, -16.81592, 65334.72141, -5209.33941)" gradientUnits="userSpaceOnUse"><stop offset="0" stop-color="#fff"/><stop offset="1"/></radialGradient><clipPath id="clip-path"><rect x="0.73434" y="2.52667" width="34.25529" height="34.25529" style="fill:none"/></clipPath><clipPath id="clip-path-3"><path d="M1.04534,19.654a16.816,16.816,0,1,0,16.817-16.815,16.818,16.818,0,0,0-16.817,16.815" style="fill:none"/></clipPath><mask id="mask" x="1.04534" y="2.83897" width="33.632" height="33.632" maskUnits="userSpaceOnUse"><rect x="1.04534" y="2.83897" width="33.632" height="33.632" style="fill:url(#radial-gradient)"/></mask><radialGradient id="radial-gradient-2" cx="-3884.22848" cy="-310.95507" r="1.00001" gradientTransform="matrix(16.81592, 0, 0, -16.81592, 65334.72141, -5209.33941)" gradientUnits="userSpaceOnUse"><stop offset="0"/><stop offset="1"/></radialGradient><clipPath id="clip-path-4"><rect x="7.94834" y="7.56697" width="19.828" height="24.174" style="fill:none"/></clipPath></defs><title>Input Adaptor Node</title><g id="Layer_12" data-name="Layer 12"><g id="model_node_icon" data-name="model node icon"><g style="clip-path:url(#clip-path)"><g style="clip-path:url(#clip-path)"><g style="clip-path:url(#clip-path-3)"><g style="mask:url(#mask)"><rect x="1.04534" y="2.83897" width="33.632" height="33.632" style="fill:url(#radial-gradient-2)"/></g></g><g style="clip-path:url(#clip-path-4)"><path d="M16.27394,16.94427v-6.272s-5.999-.124-7.499,1.582v17.915s2.326,1.165,8.766,1.165,9.673-1.479,9.673-1.479v-17.683s-1.499-1.396-7.498-1.396v6.168h3.298l-4.87,5.628-5.213-5.601Z" style="fill:#9c3;fill-rule:evenodd"/><path d="M12.62964,16.81817a.39949.39949,0,0,0,.06.399l5.185,5.726c.063.069.152.208.245.208h.003c.095,0,.185-.123.248-.193l5.009-5.668a.51193.51193,0,0,0,.055-.454c-.054-.12-.173-.294-.305-.294h-2.844v-8.64c0-.184-.256-.334-.441-.334-.184,0-.441.15-.441.334v9.126c0,.184.288.396.473.396h2.185l-3.958,4.375-3.859-4.375h2.253a.38844.38844,0,0,0,.328-.396v-9.126c0-.184-.3-.334-.484-.334-.185,0-.462.15-.462.334v8.64h-2.943c-.133,0-.253.155-.307.276" style="fill:#cf9"/><path d="M27.77494,12.57707h0v.009c0-.034-.085-.067-.085-.103,0-1.398-4.321-1.909-6.963-2.098v.789c.88.081,2.395.211,3.376.387,2.249.4,2.621.847,2.669.922-.048.075-.418.522-2.668.922-.981.176-2.497.306-3.377.389v.787a19.19629,19.19629,0,0,0,6.168-1.117v4.092c0,.036-.247.509-2.614.93-.157.029-.289.056-.456.081l-.972.924a12.4209,12.4209,0,0,0,4.042-.958v5.007c0,.024-.213.504-2.614.932a38.5832,38.5832,0,0,1-6.47.487,37.75868,37.75868,0,0,1-6.404-.487c-2.359-.42-2.578-.891-2.578-.93a.27575.27575,0,0,0-.028-.099l.001-.008a.32416.32416,0,0,1,.027.107v-5.009l-.012-.008v-.001l.012.009a12.48293,12.48293,0,0,0,4.21.981l-.997-.914c-.242-.036-.393-.073-.618-.114-2.361-.42-2.589-.891-2.589-.93,0-.015-.006-.028-.006-.043v-4.061l-.012-.008v-.001l.012.009c1.322.706,3.966,1.01,6.169,1.141v-.789a32.30748,32.30748,0,0,1-3.609-.399,6.65152,6.65152,0,0,1-2.56-.795v-.244a8.50455,8.50455,0,0,1,2.578-.805,32.45384,32.45384,0,0,1,3.591-.399v-.788c-2.929.17-6.64.635-7.005,1.903a.39537.39537,0,0,0-.045.179v11.093l.001-.001a.04143.04143,0,0,0,.002.015l-.003-.014v5.986c0,2.182,9.506,2.206,9.914,2.206.407,0,9.913-.024,9.913-2.206v-16.958Zm-19.25,10.609h-.002a.52724.52724,0,0,0-.154-.031c.006,0,.013-.005.019-.005a.48491.48491,0,0,1,.165.033c-.009.002-.018,0-.028.003m15.756,7.271a38.58326,38.58326,0,0,1-6.47.487,37.73317,37.73317,0,0,1-6.404-.487c-2.437-.433-2.578-.922-2.578-.922v-5.017a.21653.21653,0,0,0-.1-.045c.033,0,.066.033.1.054,2.203,1.221,8.697,1.234,9.032,1.234.336,0,6.831-.022,9.034-1.244v5.007c0,.005-.162.497-2.614.933" style="fill:#cf9"/></g></g></g></g></g></svg>