<svg xmlns="http://www.w3.org/2000/svg" xmlns:xlink="http://www.w3.org/1999/xlink" viewBox="0 0 40.97123 40.72638"><defs><radialGradient id="radial-gradient" cx="-3824.01895" cy="-309.44222" r="1.00001" gradientTransform="matrix(16.81592, 0, 0, -16.81592, 64325.09736, -5183.55921)" gradientUnits="userSpaceOnUse"><stop offset="0" stop-color="#fff"/><stop offset="1"/></radialGradient><clipPath id="clip-path"><rect x="3.58865" y="2.68385" width="34.25529" height="34.25529" style="fill:none"/></clipPath><clipPath id="clip-path-3"><path d="M3.89965,19.99614a16.816,16.816,0,1,0,16.817-16.817,16.81628,16.81628,0,0,0-16.817,16.817" style="fill:none"/></clipPath><mask id="mask" x="3.89965" y="3.17914" width="33.632" height="33.632" maskUnits="userSpaceOnUse"><rect x="3.89965" y="3.17914" width="33.632" height="33.632" style="fill:url(#radial-gradient)"/></mask><radialGradient id="radial-gradient-2" cx="-3824.01895" cy="-309.44222" r="1.00001" gradientTransform="matrix(16.81592, 0, 0, -16.81592, 64325.09736, -5183.55921)" gradientUnits="userSpaceOnUse"><stop offset="0"/><stop offset="1"/></radialGradient><clipPath id="clip-path-4"><rect x="9.70365" y="8.71814" width="22.027" height="22.189" style="fill:none"/></clipPath></defs><title>Input Adaptor Node Active</title><g id="Layer_11" data-name="Layer 11"><circle cx="20.56703" cy="19.65588" r="18.68333" style="fill:#9c3"/><g id="model_node_icon" data-name="model node icon"><g style="clip-path:url(#clip-path)"><g style="clip-path:url(#clip-path)"><g style="clip-path:url(#clip-path-3)"><g style="mask:url(#mask)"><rect x="3.89965" y="3.17914" width="33.632" height="33.632" style="fill:url(#radial-gradient-2)"/></g></g><g style="clip-path:url(#clip-path-4)"><path d="M19.259,8.81414v2.753s-5.506-.114-6.883,1.454v16.442s2.135,1.071,8.046,1.071,8.879-1.357,8.879-1.357v-16.233s-1.376-1.28-6.883-1.28v-2.85" style="fill:#9c3;fill-rule:evenodd"/><path d="M15.91375,17.20914a.364.364,0,0,0,.055.366l4.759,5.256c.058.063.14.191.226.191h.003c.086,0,.169-.112.227-.177l4.598-5.202a.47211.47211,0,0,0,.051-.417c-.05-.111-.16-.27-.281-.27h-2.61v-7.931c0-.169-.236-.307-.405-.307s-.405.138-.405.307v8.377c0,.169.264.363.434.363h2.302l-3.918,4.398-4.053-4.398h2.567a.35578.35578,0,0,0,.302-.363v-8.377c0-.169-.276-.307-.445-.307s-.424.138-.424.307v7.931h-2.701c-.122,0-.232.141-.282.253" style="fill:#cf9"/><path d="M29.81665,13.31654h0v.008c0-.031-.079-.062-.079-.095,0-1.283-3.966-1.752-6.392-1.926v.724c.808.075,2.199.195,3.099.356,2.065.367,2.407.777,2.451.846-.044.069-.385.479-2.449.847-.901.161-2.293.281-3.101.356v.723a17.62963,17.62963,0,0,0,5.662-1.025v3.756c0,.033-.227.467-2.399.854-.145.026-.266.051-.418.074l-.893.848a11.39793,11.39793,0,0,0,3.71-.879v4.596c0,.022-.195.463-2.399.855a35.34516,35.34516,0,0,1-5.939.447,34.58544,34.58544,0,0,1-5.878-.447c-2.165-.386-2.366-.818-2.366-.854a.24688.24688,0,0,0-.026-.09l.001-.007a.28924.28924,0,0,1,.025.097v-4.597l-.011-.007v-.002l.011.009a11.47777,11.47777,0,0,0,3.864.9l-.916-.839c-.221-.033-.36-.067-.567-.104-2.167-.386-2.376-.818-2.376-.854,0-.013-.005-.026-.005-.04v-3.727l-.011-.007v-.002l.011.009a16.57079,16.57079,0,0,0,5.662,1.047v-.724a29.75052,29.75052,0,0,1-3.312-.366,6.10452,6.10452,0,0,1-2.35-.73v-.224a7.79943,7.79943,0,0,1,2.366-.739,29.9231,29.9231,0,0,1,3.296-.367v-.722c-2.689.155-6.095.582-6.43,1.747a.35532.35532,0,0,0-.042.163v10.183l.002-.001.001.014-.003-.013v5.494c0,2.003,8.727,2.025,9.101,2.025.373,0,9.1-.022,9.1-2.025v-15.565Zm-17.671,9.738h-.001a.47908.47908,0,0,0-.142-.029c.006,0,.012-.004.018-.004a.45593.45593,0,0,1,.151.03c-.008.002-.016,0-.026.003m14.463,6.674a35.34515,35.34515,0,0,1-5.939.447,34.5515,34.5515,0,0,1-5.878-.447c-2.237-.398-2.366-.847-2.366-.847v-4.604a.19732.19732,0,0,0-.093-.042c.031,0,.061.031.093.05,2.022,1.12,7.983,1.133,8.29,1.133.308,0,6.27-.021,8.292-1.143v4.597c0,.004-.148.455-2.399.856" style="fill:#cf9"/></g></g></g></g></g></svg>