<svg xmlns="http://www.w3.org/2000/svg" xmlns:xlink="http://www.w3.org/1999/xlink" viewBox="0 0 37.13528 38.5633"><defs><radialGradient id="radial-gradient" cx="-3879.43035" cy="-1264.72964" r="1" gradientTransform="matrix(16.5, 0, 0, -16.5, 64029.3953, -20849.13997)" gradientUnits="userSpaceOnUse"><stop offset="0" stop-color="#fff"/><stop offset="0.57583" stop-color="#fff"/><stop offset="0.60079" stop-color="#e5e5e5"/><stop offset="0.66374" stop-color="#a9a9a9"/><stop offset="0.72646" stop-color="#767676"/><stop offset="0.78744" stop-color="#4b4b4b"/><stop offset="0.84633" stop-color="#2a2a2a"/><stop offset="0.90258" stop-color="#131313"/><stop offset="0.95504" stop-color="#050505"/><stop offset="1"/></radialGradient><clipPath id="clip-path"><rect x="2.30195" y="2.39663" width="33" height="33" style="fill:none"/></clipPath><clipPath id="clip-path-3"><circle cx="18.80195" cy="18.89663" r="16.5" style="fill:none"/></clipPath><mask id="mask" x="2.30195" y="2.39663" width="33" height="33" maskUnits="userSpaceOnUse"><rect x="2.30195" y="2.39664" width="33" height="33" style="fill:url(#radial-gradient)"/></mask><radialGradient id="radial-gradient-2" cx="-3879.43038" cy="-1264.72963" r="1" gradientTransform="matrix(16.5, 0, 0, -16.5, 64029.40318, -20849.14225)" gradientUnits="userSpaceOnUse"><stop offset="0"/><stop offset="0.57583"/><stop offset="1"/></radialGradient><clipPath id="clip-path-4"><rect x="6.87094" y="6.24563" width="23.861" height="25.302" style="fill:none"/></clipPath></defs><title>Output Adaptor Node copy</title><g id="Layer_17" data-name="Layer 17"><g id="ystem_node_with_back_gradient" data-name="ystem node with back gradient"><g style="clip-path:url(#clip-path)"><g style="clip-path:url(#clip-path)"><g style="clip-path:url(#clip-path-3)"><g style="mask:url(#mask)"><rect x="2.30195" y="2.39663" width="33" height="33" style="fill:url(#radial-gradient-2)"/></g></g><g style="clip-path:url(#clip-path-4)"><path d="M30.22924,18.25053a11.396,11.396,0,0,1-6.432,10.261c-.38.184.387,1.506-.015,1.648-1.187.418-3.042.067-4.371.067-1.173,0-4.042.402-5.107.072-.261-.08.641-1.328.39-1.426a11.39811,11.39811,0,1,1,15.535-10.622" style="fill:#663"/><path d="M13.66275,31.50313a.51673.51673,0,0,1-.207.044.506.506,0,0,1-.459-.72l5.353-9.306a.506.506,0,0,1,.918,0l5.961,9.306a.50572.50572,0,0,1-.679.669Zm10.047-1.335-4.901-7.236-4.319,7.294Z" style="fill:#cc3"/><path d="M18.809,22.24113a.50573.50573,0,0,1-.506-.505l-.007-3.213a.50616.50616,0,0,1,.505-.508h.001a.50573.50573,0,0,1,.506.505l.007,3.213a.50616.50616,0,0,1-.505.508Z" style="fill:#cc3"/><path d="M21.78115,22.00733a.506.506,0,0,1-.358-.864,3.7065,3.7065,0,1,0-5.243,0,.50629.50629,0,1,1-.716.716,4.7195,4.7195,0,1,1,6.675,0,.50333.50333,0,0,1-.358.148" style="fill:#cc3"/><path d="M14.51115,25.04633a.5034.5034,0,0,1-.283-.087,8.18035,8.18035,0,1,1,9.365-.152.50668.50668,0,0,1-.594-.821,7.166,7.166,0,1,0-8.204.134.50646.50646,0,0,1-.284.926" style="fill:#cc3"/><path d="M13.02375,28.54063a.49914.49914,0,0,1-.256-.07,11.93186,11.93186,0,1,1,12.705-.402.50631.50631,0,0,1-.567-.839,10.91717,10.91717,0,1,0-11.625.368.50644.50644,0,0,1-.257.943" style="fill:#cc3"/></g></g></g></g></g></svg>