<svg xmlns="http://www.w3.org/2000/svg" xmlns:xlink="http://www.w3.org/1999/xlink" viewBox="0 0 32.31993 34.25529"><defs><clipPath id="clip-path"><rect x="4.22947" y="3.90381" width="23.861" height="25.30109" style="fill:none"/></clipPath></defs><title>Output Adaptor node detail icon copy</title><g id="Layer_17" data-name="Layer 17"><g id="system_node" data-name="system node"><g style="clip-path:url(#clip-path)"><g style="clip-path:url(#clip-path)"><path d="M27.58734,15.9083a11.39768,11.39768,0,0,1-6.43161,10.26133c-.38.18411.38625,1.50572-.0158,1.6477-1.1861.41825-3.04121.06684-4.37051.06684-1.17334,0-4.04219.40165-5.10757.07231-.26007-.08041.64186-1.32788.3901-1.42592A11.3982,11.3982,0,1,1,27.58734,15.9083" style="fill:#663"/><path d="M11.02076,29.16062a.50631.50631,0,0,1-.66576-.67609l5.35326-9.30592a.5062.5062,0,0,1,.91773,0l5.96089,9.30592a.50634.50634,0,0,1-.67934.66982Zm10.047-1.33477-4.90057-7.23591-4.31988,7.29364Z" style="fill:#cc3"/><path d="M16.16716,19.89892a.50629.50629,0,0,1-.50636-.50515l-.00709-3.213a.50633.50633,0,0,1,.50535-.50758h.001a.50616.50616,0,0,1,.50636.50515l.00709,3.213a.50642.50642,0,0,1-.50515.50758Z" style="fill:#cc3"/><path d="M19.13926,19.66512a.50636.50636,0,0,1-.3581-.86446,3.70708,3.70708,0,1,0-5.24247,0,.50643.50643,0,0,1-.7162.7162,4.7198,4.7198,0,1,1,6.67486,0,.50519.50519,0,0,1-.3581.14826" style="fill:#cc3"/><path d="M11.8692,22.70408a.50212.50212,0,0,1-.283-.08709,8.18007,8.18007,0,1,1,9.36527-.15231.50635.50635,0,0,1-.59386-.82031A7.16672,7.16672,0,1,0,12.153,21.778a.50642.50642,0,0,1-.28376.926" style="fill:#cc3"/><path d="M10.38177,26.19838a.50142.50142,0,0,1-.256-.07008,11.93109,11.93109,0,1,1,12.705-.40144.50635.50635,0,1,1-.56692-.83914,10.91711,10.91711,0,1,0-11.62506.36762.50644.50644,0,0,1-.257.943" style="fill:#cc3"/></g></g></g></g></svg>