<svg xmlns="http://www.w3.org/2000/svg" xmlns:xlink="http://www.w3.org/1999/xlink" viewBox="0 0 31.0448 29.5652"><defs><clipPath id="clip-path"><rect x="0.29674" y="0.2826" width="30.45131" height="29" style="fill:none"/></clipPath><clipPath id="clip-path-2"><rect x="0.29674" y="0.2828" width="30.45151" height="28.9998" style="fill:none"/></clipPath></defs><title>Artboard 47 copy</title><g id="Layer_5" data-name="Layer 5"><g id="teal_edge_icon" data-name="teal edge icon"><g style="clip-path:url(#clip-path)"><g style="clip-path:url(#clip-path-2)"><path d="M9.638,29.2826a3.46592,3.46592,0,0,1-1.67829-.56107,15.2251,15.2251,0,1,1,14.73188.21874,2.55712,2.55712,0,0,1-1.08584.24424c-.411,0-1.75088-.14811-1.75088-2.051V19.72782a1.749,1.749,0,0,1,1.747-1.747h1.72243a.6309.6309,0,0,0,.14027-.01275.70029.70029,0,0,0-.07553-.1177L15.85776,8.0867a.39058.39058,0,0,0-.67092,0L7.65562,17.85041a.74225.74225,0,0,0-.07553.1177.63091.63091,0,0,0,.14027.01275H9.44279a1.749,1.749,0,0,1,1.747,1.747v7.53024c0,1.82739-1.08486,2.02454-1.55176,2.02454M15.5223,1.32548A14.18222,14.18222,0,0,0,8.46975,27.81226l.02943.01668a2.45884,2.45884,0,0,0,1.1388.411c.16479,0,.50908,0,.50908-.98186V19.72782a.705.705,0,0,0-.70427-.70427H7.72036a1.05595,1.05595,0,0,1-.89064-1.81071l7.53122-9.76273a1.41955,1.41955,0,0,1,2.32273,0l7.53122,9.76273a1.05595,1.05595,0,0,1-.89064,1.81071H21.60181a.705.705,0,0,0-.70427.70427v7.40567c0,1.00835.47769,1.00835.7082,1.00835a1.59894,1.59894,0,0,0,.5954-.12261A14.18234,14.18234,0,0,0,15.5223,1.32548" style="fill:#cc3"/></g></g></g></g></svg>