<svg xmlns="http://www.w3.org/2000/svg" xmlns:xlink="http://www.w3.org/1999/xlink" viewBox="0 0 37.13528 38.5633"><defs><radialGradient id="radial-gradient" cx="-3880.19562" cy="-574.73381" r="1.00001" gradientTransform="matrix(16.60527, 0, 0, -16.60527, 64451.32325, -9524.16218)" gradientUnits="userSpaceOnUse"><stop offset="0" stop-color="#fff"/><stop offset="1"/></radialGradient><clipPath id="clip-path"><rect x="2.46378" y="2.50916" width="34.25529" height="34.25529" style="fill:none"/></clipPath><clipPath id="clip-path-3"><path d="M3.02778,19.44746a16.6055,16.6055,0,1,0,16.605-16.606,16.60588,16.60588,0,0,0-16.605,16.606" style="fill:none"/></clipPath><mask id="mask" x="3.02778" y="2.84145" width="33.21101" height="33.21101" maskUnits="userSpaceOnUse"><rect x="3.02778" y="2.84145" width="33.21101" height="33.21101" style="fill:url(#radial-gradient)"/></mask><radialGradient id="radial-gradient-2" cx="-3880.19559" cy="-574.73381" r="1.00001" gradientTransform="matrix(16.60527, 0, 0, -16.60527, 64451.31538, -9524.16115)" gradientUnits="userSpaceOnUse"><stop offset="0"/><stop offset="1"/></radialGradient><clipPath id="clip-path-4"><rect x="8.38278" y="10.47346" width="22.416" height="18.327" style="fill:none"/></clipPath></defs><title>Container Node</title><g id="Layer_12" data-name="Layer 12"><g id="model_node_icon" data-name="model node icon"><g style="clip-path:url(#clip-path)"><g style="clip-path:url(#clip-path)"><g style="clip-path:url(#clip-path-3)"><g style="mask:url(#mask)"><rect x="3.02778" y="2.84146" width="33.211" height="33.211" style="fill:url(#radial-gradient-2)"/></g></g><g style="clip-path:url(#clip-path-4)"><rect x="9.10378" y="12.46946" width="20.712" height="14.332" style="fill:#909"/></g><g style="clip-path:url(#clip-path-4)"><path d="M30.80546,26.4104a2.00784,2.00784,0,0,1-2.002,2.002h-18.418a2.00784,2.00784,0,0,1-2.002-2.002V12.79712a2.00784,2.00784,0,0,1,2.002-2.002h18.418a2.00784,2.00784,0,0,1,2.002,2.002ZM29.2039,16.00025a.41169.41169,0,0,0-.40039-.40039h-18.418a.41169.41169,0,0,0-.40039.40039V26.4104a.41169.41169,0,0,0,.40039.40039h18.418a.41169.41169,0,0,0,.40039-.40039ZM13.18827,18.40259a.41169.41169,0,0,1-.40039.40039H11.9871a.41169.41169,0,0,1-.40039-.40039v-.80078a.41169.41169,0,0,1,.40039-.40039h.80078a.41169.41169,0,0,1,.40039.40039Zm0,3.20313a.41169.41169,0,0,1-.40039.40039H11.9871a.41169.41169,0,0,1-.40039-.40039v-.80078a.41169.41169,0,0,1,.40039-.40039h.80078a.41169.41169,0,0,1,.40039.40039Zm0,3.20313a.41169.41169,0,0,1-.40039.40039H11.9871a.41169.41169,0,0,1-.40039-.40039v-.80078a.41169.41169,0,0,1,.40039-.40039h.80078a.41169.41169,0,0,1,.40039.40039Zm14.41406-6.40625a.41169.41169,0,0,1-.40039.40039H15.19022a.41169.41169,0,0,1-.40039-.40039v-.80078a.41169.41169,0,0,1,.40039-.40039H27.20194a.41169.41169,0,0,1,.40039.40039Zm0,3.20313a.41169.41169,0,0,1-.40039.40039H15.19022a.41169.41169,0,0,1-.40039-.40039v-.80078a.41169.41169,0,0,1,.40039-.40039H27.20194a.41169.41169,0,0,1,.40039.40039Zm0,3.20313a.41169.41169,0,0,1-.40039.40039H15.19022a.41169.41169,0,0,1-.40039-.40039v-.80078a.41169.41169,0,0,1,.40039-.40039H27.20194a.41169.41169,0,0,1,.40039.40039Z" style="fill:#f6f"/></g></g></g></g></g></svg>