<svg xmlns="http://www.w3.org/2000/svg" xmlns:xlink="http://www.w3.org/1999/xlink" viewBox="0 0 32.31993 34.25529"><defs><clipPath id="clip-path"><rect x="1.25842" y="4.87719" width="30" height="25.11361" style="fill:none"/></clipPath><clipPath id="clip-path-2"><rect x="1.25842" y="4.87683" width="30.00072" height="25.11397" style="fill:none"/></clipPath></defs><title>Input Adaptor node detail icon_1</title><g id="Layer_10" data-name="Layer 10"><g id="model_icon" data-name="model icon"><g style="clip-path:url(#clip-path)"><polygon points="8.742 6.136 8.742 14.422 19.533 14.627 19.533 9.924 27.721 17.401 19.533 24.548 19.31 20.326 8.742 20.395 8.742 28.667 30.322 28.667 30.322 6.136 8.742 6.136" style="fill:#c93"/><g style="clip-path:url(#clip-path-2)"><path d="M29.66613,28.19246V6.67553H9.399v5.63591a.53169.53169,0,0,1-1.063,0V6.15856a.52313.52313,0,0,1,.53148-.51516H30.19762a.52313.52313,0,0,1,.53148.51516V28.70943a.52313.52313,0,0,1-.53148.51516m0-23.58119a.52313.52313,0,0,1,.53148.51516V28.70943a.52313.52313,0,0,1-.53148.51516H8.86752a.52313.52313,0,0,1-.53148-.51516V22.55655a.53169.53169,0,0,1,1.063,0v5.6359H29.66613V6.67553" style="fill:#cc6"/><path d="M19.25848,25.5617a.60261.60261,0,0,0,.60041-.0907l8.61258-7.79812c.10339-.09614.31381-.22856.31381-.37v-.00363c0-.1433-.185-.27753-.292-.37367L19.96955,9.39226a.77154.77154,0,0,0-.68385-.08344c-.18139.07981-.4426.26121-.4426.45893v4.27908H5.848c-.27935,0-.50427.38455-.50427.66209,0,.27935.22493.6639.50427.6639H19.57411c.27753,0,.595-.43353.595-.71288v-3.285l6.581,5.95334-6.581,5.8046V19.74441a.58386.58386,0,0,0-.595-.49521H5.848c-.27935,0-.50427.45167-.50427.7292s.22493.69474.50427.69474H18.84309V25.101c0,.19953.23218.38093.41539.46074" style="fill:#cc6"/></g></g></g></g></svg>