<svg xmlns="http://www.w3.org/2000/svg" xmlns:xlink="http://www.w3.org/1999/xlink" viewBox="0 0 37.13528 38.5633"><defs><radialGradient id="radial-gradient" cx="-3885.89301" cy="-829.76438" r="1.00002" gradientTransform="matrix(16.93065, 0, 0, -16.93065, 65808.54424, -14028.79317)" gradientUnits="userSpaceOnUse"><stop offset="0" stop-color="#fff"/><stop offset="1"/></radialGradient><clipPath id="clip-path"><rect x="0.73434" y="2.52667" width="34.25529" height="34.25529" style="fill:none"/></clipPath><clipPath id="clip-path-3"><path d="M.96634,19.621a17.00044,17.00044,0,0,0,17,17,16.82266,16.82266,0,0,0,16.791-17,16.7655,16.7655,0,0,0-16.791-16.933,16.94338,16.94338,0,0,0-17,16.933" style="fill:none"/></clipPath><mask id="mask" x="0.96634" y="2.68797" width="33.79099" height="33.933" maskUnits="userSpaceOnUse"><rect x="0.96634" y="2.68798" width="33.79099" height="33.933" style="fill:url(#radial-gradient)"/></mask><radialGradient id="radial-gradient-2" cx="-3885.89304" cy="-829.76437" r="1.00002" gradientTransform="matrix(16.93065, 0, 0, -16.93065, 65808.55212, -14028.79466)" gradientUnits="userSpaceOnUse"><stop offset="0"/><stop offset="1"/></radialGradient><clipPath id="clip-path-4"><rect x="4.40834" y="9.01497" width="22.907" height="21.279" style="fill:none"/></clipPath></defs><title>Input Adaptor Node_1</title><g id="Layer_12" data-name="Layer 12"><g id="model_node_icon" data-name="model node icon"><g style="clip-path:url(#clip-path)"><g style="clip-path:url(#clip-path)"><g style="clip-path:url(#clip-path-3)"><g style="mask:url(#mask)"><rect x="0.96634" y="2.68797" width="33.79099" height="33.933" style="fill:url(#radial-gradient-2)"/></g></g><g style="clip-path:url(#clip-path-4)"><polygon points="7.475 9.459 7.475 16.936 17.213 17.121 17.213 12.877 24.601 19.624 17.213 26.073 17.011 22.264 7.475 22.326 7.475 29.79 26.949 29.79 26.949 9.459 7.475 9.459" style="fill:#c93"/><path d="M26.35554,29.36277V9.94577H8.06754v5.086a.47967.47967,0,0,1-.959,0v-5.552a.47174.47174,0,0,1,.479-.465h19.248a.47262.47262,0,0,1,.48.465v20.349a.47262.47262,0,0,1-.48.465m0-21.279a.47262.47262,0,0,1,.48.465v20.349a.47262.47262,0,0,1-.48.465H7.58754a.47174.47174,0,0,1-.479-.465v-5.552a.47967.47967,0,0,1,.959,0v5.086h18.288V9.94577" style="fill:#cc6"/><path d="M16.96434,26.98847a.544.544,0,0,0,.542-.082l7.772-7.037c.093-.086.283-.206.283-.334v-.003c0-.129-.167-.25-.264-.337l-7.691-6.798a.69661.69661,0,0,0-.617-.075c-.164.072-.4.236-.4.414v3.861H4.86334c-.252,0-.455.347-.455.598,0,.252.203.599.455.599h12.386c.25,0,.537-.391.537-.643v-2.965l5.938,5.372-5.938,5.238v-3.057a.52694.52694,0,0,0-.537-.447H4.86334c-.252,0-.455.407-.455.658,0,.25.203.627.455.627h11.726v3.995c0,.18.21.344.375.416" style="fill:#cc6"/></g></g></g></g></g></svg>