<svg xmlns="http://www.w3.org/2000/svg" xmlns:xlink="http://www.w3.org/1999/xlink" viewBox="0 0 32.31993 34.25529"><defs><clipPath id="clip-path"><rect x="0.57835" y="2.77038" width="30" height="29.32721" style="fill:none"/></clipPath><clipPath id="clip-path-2"><rect x="0.57835" y="2.77128" width="29.99927" height="29.32632" style="fill:none"/></clipPath></defs><title>Input Adaptor node detail icon</title><g id="Layer_10" data-name="Layer 10"><g id="model_icon" data-name="model icon"><g style="clip-path:url(#clip-path)"><g style="clip-path:url(#clip-path-2)"><path d="M13.67829,3.09663V6.6857s-7.17815-.14895-8.97268,1.895V30.01468s2.78333,1.39615,10.48907,1.39615,11.57476-1.76941,11.57476-1.76941V8.48024S24.9749,6.81132,17.79675,6.81132V3.09663" style="fill:#9c3;fill-rule:evenodd"/><path d="M9.31757,14.04025a.47751.47751,0,0,0,.07178.47735l6.20371,6.85154c.07537.08255.183.24944.2943.24944H15.891c.11306,0,.22073-.14715.2961-.2315l5.99375-6.78155a.61219.61219,0,0,0,.0664-.54375c-.0646-.14356-.20816-.35173-.36608-.35173H18.47868V3.37173c0-.22073-.30687-.40018-.52759-.40018s-.52759.17945-.52759.40018V14.29149c0,.22073.34455.47376.56528.47376h3.00047L15.882,20.49879l-5.28312-5.73354h3.34681a.46425.46425,0,0,0,.393-.47376V3.37173c0-.22073-.35891-.40018-.57964-.40018s-.55272.17945-.55272.40018V13.71006H9.68545c-.15971,0-.30328.18484-.36788.33019" style="fill:#cf9"/><path d="M27.44059,8.96584h0v.01077c0-.04127-.10229-.08075-.10229-.12382,0-1.67251-5.17006-2.28445-8.332-2.51056v.94393c1.05339.0969,2.86587.253,4.0395.463,2.6918.47914,3.13685,1.01391,3.19427,1.10364-.05742.08973-.50067.6245-3.19248,1.10364-1.17363.21-2.9879.36608-4.0413.46478v.94213c2.63617-.16151,5.73534-.5258,7.38093-1.33693V14.9237c0,.04307-.2961.60835-3.12788,1.11261-.18843.0341-.34635.0664-.54554.0969l-1.16286,1.10543a14.84706,14.84706,0,0,0,4.83628-1.14671v5.992c0,.02871-.25482.603-3.12788,1.11441a46.10565,46.10565,0,0,1-7.74163.58322A45.11042,45.11042,0,0,1,7.855,23.19831c-2.82281-.50247-3.08481-1.066-3.08481-1.11261a.33413.33413,0,0,0-.03409-.11844l.00179-.009a.38073.38073,0,0,1,.0323.12741V16.09195l-.01436-.009v-.0018l.01436.01077a14.93429,14.93429,0,0,0,5.03727,1.17363L8.61411,16.1727c-.28892-.04307-.47017-.08793-.73935-.13638-2.8246-.50247-3.09737-1.066-3.09737-1.11261,0-.01795-.00718-.0341-.00718-.052V10.01206l-.01436-.009v-.0018l.01436.01077c1.581.84523,4.74476,1.20952,7.38093,1.36564v-.94393a38.793,38.793,0,0,1-4.31765-.47735,7.98167,7.98167,0,0,1-3.06328-.9511V8.71281A10.19719,10.19719,0,0,1,7.855,7.74914a38.84329,38.84329,0,0,1,4.29612-.47735V6.32967c-3.50473.20278-7.94441.75909-8.38228,2.27727a.4705.4705,0,0,0-.05384.21355V22.09467l.00179-.00179a.061.061,0,0,0,.0018.01794L3.715,22.09467v7.162c0,2.61105,11.37557,2.63976,11.86368,2.63976.48632,0,11.86189-.02871,11.86189-2.63976V8.96584ZM4.40592,21.66039h-.0018a.61674.61674,0,0,0-.18484-.03769c.00718,0,.01615-.00538.02333-.00538a.56893.56893,0,0,1,.1974.03948.24522.24522,0,0,0-.03409.00359m18.8534,8.69991a46.10566,46.10566,0,0,1-7.74163.58322A45.07992,45.07992,0,0,1,7.855,30.36031c-2.91612-.51862-3.08481-1.10364-3.08481-1.10364V23.25394A.26362.26362,0,0,0,4.65,23.20011c.03948,0,.079.03948.12023.0646,2.63618,1.46075,10.40652,1.4769,10.8067,1.4769.402,0,8.17411-.02692,10.81029-1.48947v5.992c0,.00538-.19381.594-3.12788,1.1162" style="fill:#cf9"/></g></g></g></g></svg>